# xmcd
#
# Track frame offsets:
#	150
#	11437
#	22742
#	33415
#	48985
#	65372
#	80082
#	98630
#	111272
#	120597
#	133135
#	145140
#	151260
#	163765
#
# Disc length: 2399 seconds
#
# Revision: 1
# Processed by: cddbd v1.4PL0 Copyright (c) Steve Scherf et al.
# Submitted via: audiograbber 1.80
#
DISCID=ae095d0e
DTITLE=Die Kosaken vom Don - Von Moskau bis zum Kaukasus
DYEAR=1900
DGENRE=
TTITLE0=Abendglocken
TTITLE1=Berosinka
TTITLE2=Vater Unser
TTITLE3=Stenka Rasin
TTITLE4=Ej uchnjem
TTITLE5=Roter Sarafan
TTITLE6=Karobuschka
TTITLE7=Kalakoltschik
TTITLE8=Metjelitza
TTITLE9=Salawie
TTITLE10=Tebe poem
TTITLE11=Danzi Maladzi
TTITLE12=Smukljanka
TTITLE13=Kalinka
EXTD=
EXTT0=
EXTT1=
EXTT2=
EXTT3=
EXTT4=
EXTT5=
EXTT6=
EXTT7=
EXTT8=
EXTT9=
EXTT10=
EXTT11=
EXTT12=
EXTT13=
PLAYORDER=
